HIERARCHY
ROOT joint_0
{
	OFFSET 0.000000 0.000000 0.000000
	CHANNELS 6 Xposition Yposition Zposition Zrotation Yrotation Xrotation 
	JOINT joint_1
	{
		OFFSET 0.000000 0.000000 0.000000
		CHANNELS 3 Zrotation Yrotation Xrotation
		JOINT joint_2
		{
			OFFSET 3.811170 -8.520760 0.839290
			CHANNELS 3 Zrotation Yrotation Xrotation
			JOINT joint_3
			{
				OFFSET 2.562200 -7.039590 0.000000
				CHANNELS 3 Zrotation Yrotation Xrotation
				JOINT joint_4
				{
					OFFSET 0.157640 -0.433110 2.322550
					CHANNELS 3 Zrotation Yrotation Xrotation
					End Site
					{
						OFFSET 0.000000 0.000000 0.000000
					}
				}
			}
		}
	}
	JOINT joint_5
	{
		OFFSET 0.000000 0.000000 0.000000
		CHANNELS 3 Zrotation Yrotation Xrotation
		JOINT joint_6
		{
			OFFSET -3.848050 -8.780180 0.839290
			CHANNELS 3 Zrotation Yrotation Xrotation
			JOINT joint_7
			{
				OFFSET -2.568260 -7.056230 0.000000
				CHANNELS 3 Zrotation Yrotation Xrotation
				JOINT joint_8
				{
					OFFSET -0.164730 -0.452590 2.363150
					CHANNELS 3 Zrotation Yrotation Xrotation
					End Site
					{
						OFFSET 0.000000 0.000000 0.000000
					}
				}
			}
		}
	}
	JOINT joint_9
	{
		OFFSET 0.028270 2.035590 -0.193380
		CHANNELS 3 Zrotation Yrotation Xrotation
		JOINT joint_10
		{
			OFFSET 0.056720 2.048850 -0.042750
			CHANNELS 3 Zrotation Yrotation Xrotation
			JOINT joint_11
			{
				OFFSET -0.054170 1.746240 0.172020
				CHANNELS 3 Zrotation Yrotation Xrotation
				JOINT joint_12
				{
					OFFSET 0.104070 1.761360 -0.123970
					CHANNELS 3 Zrotation Yrotation Xrotation
					End Site
					{
						OFFSET 0.000000 0.000000 0.000000
					}
				}
			}
			JOINT joint_13
			{
				OFFSET 3.362410 1.200890 -0.311210
				CHANNELS 3 Zrotation Yrotation Xrotation
				JOINT joint_14
				{
					OFFSET 4.983000 -0.000000 -0.000000
					CHANNELS 3 Zrotation Yrotation Xrotation
					JOINT joint_15
					{
						OFFSET 3.483560 -0.000000 -0.000000
						CHANNELS 3 Zrotation Yrotation Xrotation
						JOINT joint_16
						{
							OFFSET 0.715260 -0.000000 -0.000000
							CHANNELS 3 Zrotation Yrotation Xrotation
							End Site
							{
								OFFSET 0.000000 0.000000 0.000000
							}
						}
					}
				}
			}
			JOINT joint_17
			{
				OFFSET -3.136600 1.374050 -0.404650
				CHANNELS 3 Zrotation Yrotation Xrotation
				JOINT joint_18
				{
					OFFSET -5.241900 -0.000000 -0.000000
					CHANNELS 3 Zrotation Yrotation Xrotation
					JOINT joint_19
					{
						OFFSET -3.444170 -0.000000 -0.000000
						CHANNELS 3 Zrotation Yrotation Xrotation
						JOINT joint_20
						{
							OFFSET -0.622530 -0.000000 -0.000000
							CHANNELS 3 Zrotation Yrotation Xrotation
							End Site
							{
								OFFSET 0.000000 0.000000 0.000000
							}
						}
					}
				}
			}
		}
	}
}
MOTION
Frames: 15
Frame Time: 0.031667
-2.459858 14.507683 5.742495 170.276443 -42.221558 178.379807 -38.827179 41.862481 10.645968 -0.620484 0.056949 0.892836 -3.105197 15.779463 1.709575 0.507607 -3.394893 -11.641029 10.882188 17.067788 3.844991 25.555617 12.739029 -8.353883 8.254241 14.021950 -7.053582 -0.218677 -0.314032 4.254060 -19.315447 28.763877 42.951686 -0.222169 -3.129148 -2.588789 4.082807 4.415314 4.345210 0.569259 -0.612012 4.229960 19.177043 -12.763227 5.349578 30.946846 -7.772903 -51.506597 0.685708 -1.020738 0.215405 -13.833265 0.123354 0.122946 -75.704315 -8.703331 19.812670 39.547958 -42.622080 -146.395041 -24.538981 27.834928 -22.183455 14.506515 -0.136418 -0.030142 
-2.618448 14.527208 5.658350 170.375656 -37.557163 178.634201 -30.944910 13.181392 20.442111 -11.829105 -1.994793 5.718449 -0.097182 0.120216 0.031264 0.709299 -4.245130 -14.063623 21.259318 31.796583 19.246210 7.399851 -0.668866 -2.117162 -6.694600 22.115487 -41.265053 -0.143699 1.846032 -3.911219 -68.016306 -22.690288 7.809987 2.478603 -3.968664 -3.371512 6.769271 -8.054806 6.600162 -0.096454 0.109639 -0.433487 10.387414 -3.686800 1.293980 -25.388959 -41.896236 -27.552027 -4.747805 -3.542081 15.588083 -14.060493 0.103974 0.143975 41.757962 3.385466 50.513013 71.745704 -39.538036 -171.580164 3.154163 3.607759 7.296753 14.814133 -0.150121 -0.020395 
-2.764054 14.545231 5.564871 170.413406 -32.941769 178.892181 -45.302247 23.325608 -3.150460 -5.560473 5.776725 2.831640 9.717980 -19.139101 1.624820 1.099416 -6.156675 -18.974771 3.192011 27.607787 -17.520780 10.760164 -2.156796 3.612509 17.616330 21.580318 -27.450931 -0.207521 2.532419 -6.336926 35.919458 -20.141165 42.801292 17.662926 6.072155 -15.078968 16.065234 -16.188927 -9.823601 0.321981 -1.183569 0.318544 26.744691 7.137953 16.891013 54.187999 -24.046538 -34.943878 -14.394704 -3.775399 18.508655 -13.976699 0.068635 0.129775 92.304771 54.965020 99.375975 -8.427197 -50.182837 -166.567358 5.526604 -20.791614 39.115671 14.749044 -0.177823 -0.050842 
-2.906213 14.562422 5.467940 170.488632 -28.315804 179.197021 -53.345678 19.721630 -9.416961 6.493560 7.691904 11.953823 1.722776 4.447337 -6.624112 1.168136 -6.651395 -20.007344 4.272694 3.874272 2.590652 32.012226 -7.609801 -2.381052 11.782525 22.314014 -39.111413 -3.635160 8.211438 5.256714 -19.201715 -28.707763 43.970095 29.128102 -15.572367 -5.693514 23.668425 -1.600886 -17.324689 -0.034363 0.117593 0.078715 22.668252 13.381202 11.807380 73.574369 22.450655 -79.634691 -1.405164 -11.253274 30.453880 -13.913843 0.030504 0.114568 -104.818240 62.964695 -82.036143 82.534937 -49.130638 128.942001 -7.659572 -2.785415 16.309915 14.596050 -0.200545 -0.085524 
-3.037075 14.576888 5.359700 170.548111 -23.823706 179.467407 -34.879957 30.025438 -21.771597 1.928401 -3.589464 -2.786961 -0.488753 0.727321 -0.777362 0.465364 4.497249 11.615183 13.296844 27.593038 19.011988 32.747666 19.285450 -22.418715 1.310983 18.643564 -35.716027 -0.164102 1.997813 -4.924754 1.901076 14.590842 26.267414 -3.292546 -12.243400 -27.284687 39.738993 -10.172262 -8.618280 1.682468 -2.964571 -2.184895 31.261766 5.132451 10.604978 25.544414 -39.026075 -51.061108 1.859316 -1.622813 18.287816 -13.913465 0.051430 0.095865 -92.166766 62.888765 -36.007748 116.338136 -25.840638 167.343376 4.001972 -6.714737 -15.789369 14.604025 -0.203377 -0.112683 
-3.164959 14.590025 5.247998 170.648514 -19.354546 179.764572 -49.232705 26.473380 -15.036184 -1.310149 7.790728 3.477129 -1.883244 1.662756 -2.692380 1.340398 11.473808 8.244759 14.920698 38.673408 15.788490 29.655942 -3.004459 -18.665043 -2.895629 15.598932 -23.455101 -0.333047 3.019916 -6.889172 -8.690717 23.781858 54.685277 4.100637 1.284697 -11.381599 18.152719 -26.871533 -20.997370 3.813992 -5.951633 -2.720276 55.117863 5.590031 38.923376 21.868770 -51.839416 -78.983709 16.833458 -35.991804 -10.376558 -13.882569 0.072182 0.117196 -70.737557 67.521449 -82.861326 -141.105421 25.700830 52.875832 -27.132354 3.969580 3.208510 14.592644 -0.198998 -0.104960 
-3.282469 14.598531 5.124234 170.778320 -15.053505 -179.976471 -16.151686 25.099572 -34.999252 4.065953 -1.528298 2.586652 0.609182 -12.607892 6.174932 0.294814 3.437847 8.775434 23.847275 21.100403 16.346696 28.247916 11.033637 -5.473824 12.825685 15.681962 -17.796298 -0.337781 -2.706555 9.524803 -1.833660 19.072338 19.627241 1.433890 7.891375 16.486772 0.227533 -7.140222 -12.715491 6.154421 -7.159449 2.783758 19.674017 -37.407473 6.280082 9.452512 -43.092492 -16.226118 7.304007 17.764488 -23.855305 -13.793682 0.125919 0.183335 -35.022953 51.491653 -1.657368 149.941249 -24.596189 -129.676085 18.803303 -30.043539 13.367373 14.464537 -0.184105 -0.058098 
-3.397201 14.605514 4.997565 170.957077 -10.781870 -179.693497 -14.352559 14.521669 -15.069528 -0.069766 -0.226527 -0.105677 -0.498035 -6.389537 9.152082 0.360938 -3.168151 -10.279507 15.680779 30.438854 9.725861 16.103921 -5.651149 -4.594711 24.537198 15.563054 -27.546236 -0.362088 -1.690035 9.950647 -10.237011 4.759096 40.471922 3.300591 3.900205 2.503660 -0.108827 2.034091 3.377571 3.795311 -2.389559 9.178697 23.600662 -1.609232 18.116666 9.317136 -56.244126 -33.398536 -0.810174 -2.416495 -5.011983 -13.484765 0.149487 0.204631 -22.784456 57.760581 -40.938347 69.654177 -46.097364 -172.129500 -2.819613 2.737178 17.965345 14.196577 -0.167395 -0.028080 
-3.501622 14.606843 4.860115 171.189468 -6.673385 -179.448105 -2.326474 19.977307 -21.738415 2.823182 1.756577 1.573807 -21.154340 3.527058 -13.761342 0.291865 3.368285 8.539423 24.859148 30.229536 -10.575644 28.151857 0.411751 4.819316 12.414572 21.603167 -20.574424 -0.158128 -0.845898 5.436968 3.416634 -9.977409 36.580850 -1.487056 2.624955 1.706711 13.740972 -4.759055 2.136725 3.411144 -1.826721 10.609778 -5.954233 4.378583 3.471585 3.610783 -25.291129 -43.277249 29.339291 12.653751 -34.027769 -13.199331 0.149422 0.239051 -13.882458 61.258390 -57.028158 115.882601 -30.428056 -174.862376 31.432133 -1.115608 5.404508 13.814071 -0.158892 -0.003896 
-3.603539 14.607029 4.720396 171.478287 -2.584581 -179.173004 -34.026499 13.943887 -24.898157 10.565814 1.513535 4.747815 -10.381250 4.228882 -5.231624 0.464620 4.419612 11.295027 -11.316065 20.499978 -28.541265 22.640553 -7.903946 6.106268 7.331523 7.860276 -15.132990 -0.263976 2.907855 -6.614652 37.974247 -10.207208 31.030966 -3.087476 -4.951509 -14.776595 -17.827251 -22.515719 23.701292 2.115058 -3.030689 9.021767 3.169749 -2.763611 5.643324 37.258276 -33.228555 -64.840832 -20.485612 23.351381 -52.751841 -12.665881 0.084648 0.168825 -66.258716 59.810419 -82.442842 -147.676995 65.820704 -4.326105 6.304003 -4.855599 -24.665190 13.073740 -0.158606 -0.040601 
-3.695530 14.602684 4.571686 171.832626 1.375654 -178.939560 -43.397942 18.912977 -28.699088 -2.212209 4.051984 6.814760 -2.588674 4.545265 -8.313888 0.440302 -3.895737 -14.099017 -0.026820 0.864324 -1.503831 14.196013 -2.469756 6.489687 -5.886885 13.748368 -27.063995 -0.453224 3.820648 -9.297001 -9.856609 38.668415 18.157747 -36.091193 10.477273 3.496055 6.565416 9.793237 -8.211677 0.090088 -7.299523 1.588358 -12.414598 -16.110253 -6.968312 90.915405 -41.450118 -66.371800 8.775727 6.350744 -20.974422 -12.128528 0.029075 0.105084 -88.394023 62.047731 -86.749481 26.314997 -28.125680 -146.667320 0.623420 -3.530571 1.910457 12.387781 -0.158582 -0.066863 
-3.785338 14.597994 4.421126 172.246323 5.330235 -178.664795 -62.088551 0.009702 -31.880507 -1.585223 5.762143 8.119169 -0.035531 -1.785363 0.008371 0.480224 -4.406576 -13.601449 5.080437 15.080461 -10.719915 31.628759 -6.225387 -8.867420 1.832412 6.541483 -27.594839 -0.237342 2.615973 -6.616908 -29.260833 -2.385192 16.926893 -35.500895 32.465655 -11.972950 36.134576 -30.199463 7.374394 -0.557943 -4.472052 2.311153 -3.974608 -1.919259 -3.669071 58.404723 -56.015541 -68.000921 13.520990 6.806946 -26.307176 -11.702727 0.015902 0.060611 64.879537 63.884483 89.870983 34.161374 -82.739957 174.942102 5.694654 12.759373 -3.257818 11.964627 -0.154723 -0.097836 
-3.865871 14.591835 4.262709 172.722534 9.200757 -178.432083 -72.535131 -16.528328 -16.668571 0.170835 0.508848 2.414146 3.016972 3.125624 2.513693 0.090935 9.679844 9.772747 2.534247 3.129876 -1.332886 20.206997 -19.107648 11.710721 15.512050 11.953264 -17.310283 -0.388988 -2.897408 8.884443 -45.918736 13.729267 14.692102 -8.276356 23.632830 8.688542 18.501200 -13.069259 18.610106 -0.540533 -2.315166 2.463882 -4.642592 -13.153989 -20.442407 50.444216 -60.923794 -78.470675 -3.817884 -2.931804 -50.158545 -11.470112 0.005837 0.035586 83.561193 67.920083 98.723117 -170.061935 19.764112 -70.833747 9.603003 -16.144338 -14.164260 11.791362 -0.153097 -0.102786 
-3.944309 14.586116 4.102765 173.253860 13.079476 -178.145386 -26.870677 19.952386 -24.538062 12.550417 -0.067994 13.741249 -1.356620 1.089254 -0.313029 0.597326 5.667506 12.427554 15.980115 19.334048 0.659606 25.943513 -12.109766 12.986921 41.349446 2.149218 -40.162933 -0.158611 2.028439 -5.140458 -38.346676 -7.065036 16.984547 6.018289 10.830999 22.199886 28.366358 -30.711712 6.449234 -0.625076 -1.779903 1.696251 -30.452538 9.356905 -25.341140 48.778125 -35.861349 -81.304979 -2.601125 -0.970885 -4.291924 -11.658896 0.041986 0.048542 -62.243137 73.816639 -61.635594 -165.194873 30.932592 -70.180366 0.042324 -0.767570 0.091193 12.060481 -0.163869 -0.104466 
-4.013194 14.582400 3.935857 173.818298 16.912605 -177.895737 -56.413564 14.887440 -53.893045 13.106142 2.918678 3.597158 -0.309686 1.075481 10.253628 0.339737 -3.417560 -10.780223 0.101193 0.288960 -0.068883 8.588925 -0.651353 -0.212175 12.364444 -2.348346 -34.768510 -0.329697 -1.751584 7.275958 25.017235 24.706311 28.870581 15.002514 -4.575400 1.869361 1.555860 0.719931 0.239236 -0.485262 -1.104767 1.078070 2.789332 1.100056 4.837143 21.780022 -48.886392 -2.031704 -3.819130 -9.503848 16.650750 -11.917989 0.078968 0.091613 80.429030 21.110610 -4.276034 34.693432 -12.117360 -140.687259 12.373286 4.795838 7.576884 12.388733 -0.152180 -0.081033 
